<svg xmlns="http://www.w3.org/2000/svg" width="200" height="140" viewBox="0 0 200 140"><defs><style>.a,.c,.d{fill:#fff;}.b{fill:#030504;}.b,.c{stroke:#fff;}.d{font-size:24px;font-family:GeezaPro-Bold, Geeza Pro;font-weight:700;}</style></defs><g transform="translate(-80 -310)"><g transform="translate(-20.211 155.845)"><g transform="translate(124.496 154.155)"><path class="a" d="M181.455,218.066h33.672l20.535-63.832h5.506l21.61,66.88h-3.433c-7.391-20.942-13.759-42.286-20.707-63.769a10.936,10.936,0,0,0-.494,1.04q-5.1,15.662-10.184,31.325-4.941,15.116-9.939,30.214c-.437,1.325-.461,1.322-1.888,1.323q-18.268,0-36.536,0c-.461,0-.923-.041-1.495-.068V154.3a6.479,6.479,0,0,1,.855-.137c.749-.018,1.5-.006,2.495-.006,0,3.629,0,7.146,0,10.663q0,5.31,0,10.621v42.624Z" transform="translate(-178.102 -154.155)"/><path class="a" d="M517.075,200.88v25.254h-3.456V159.184H515.2c8.59,0,17.181-.026,25.771.011a25.193,25.193,0,0,1,12.162,2.68,13.091,13.091,0,0,1,7.134,11.446,98.891,98.891,0,0,1-.005,11.747c-.428,6.617-3.668,11.642-10.177,14.17a25.106,25.106,0,0,1-8.979,1.627c-7.457.047-14.915.015-22.373.015Zm.068-3.221c.507.031.92.079,1.333.079,7.689,0,15.379.031,23.067-.024a20.119,20.119,0,0,0,4.472-.555c7.2-1.711,10.458-6.461,10.816-12.886.189-3.386.153-6.8.006-10.186-.2-4.666-2.347-8.158-6.729-10.1a21.122,21.122,0,0,0-8.671-1.672q-11.534-.012-23.067,0c-.4,0-.8.071-1.226.111Z" transform="translate(-409.01 -157.61)"/></g><g transform="translate(100.211 235.74)"><g transform="translate(34.837 0)"><path class="a" d="M222.1,400.682q.355,0,.355.337t-.355.338h-9.8q-.221,0-.279-.095a.329.329,0,0,1-.07-.237v-16.94q0-.332.349-.332a.291.291,0,0,1,.326.332v16.6Z" transform="translate(-211.945 -383.754)"/><path class="a" d="M263.723,413.564q0,.344-.331.344-.368,0-.367-.344v-3.021a4.533,4.533,0,0,1-.746,1.475,5.4,5.4,0,0,1-1.19,1.149,5.518,5.518,0,0,1-1.487.74,5.291,5.291,0,0,1-1.635.261,5.229,5.229,0,0,1-2.215-.48,5.8,5.8,0,0,1-1.819-1.3,6.255,6.255,0,0,1-1.676-4.294,6.313,6.313,0,0,1,1.676-4.312,5.776,5.776,0,0,1,1.819-1.309,5.238,5.238,0,0,1,2.215-.48,5.466,5.466,0,0,1,3.1.96,5.34,5.34,0,0,1,1.179,1.113,4.9,4.9,0,0,1,.782,1.457v-2.878a.325.325,0,0,1,.367-.367q.331,0,.331.367Zm-.735-5.473a5.634,5.634,0,0,0-1.474-3.826,5.16,5.16,0,0,0-1.6-1.167,4.644,4.644,0,0,0-3.915,0,5.106,5.106,0,0,0-1.587,1.167,5.522,5.522,0,0,0-1.066,1.724,5.674,5.674,0,0,0-.391,2.1,5.656,5.656,0,0,0,1.457,3.808A4.983,4.983,0,0,0,256,413.067a4.709,4.709,0,0,0,3.915,0,5.035,5.035,0,0,0,1.6-1.167,5.631,5.631,0,0,0,1.078-1.724A5.519,5.519,0,0,0,262.988,408.092Z" transform="translate(-239.688 -396.305)"/><path class="a" d="M335.8,390.53a6.79,6.79,0,0,1-.184,1.546,6.886,6.886,0,0,1-.563,1.54,7.332,7.332,0,0,1-.942,1.421,6.115,6.115,0,0,1-1.315,1.167,6.521,6.521,0,0,1-1.7.788,7.136,7.136,0,0,1-2.1.29h-4v3.743a.332.332,0,0,1-.663,0v-16.94q0-.2.095-.261l.142-.071H329a7.151,7.151,0,0,1,2.091.29,6.4,6.4,0,0,1,1.706.794A6.325,6.325,0,0,1,334.108,386a7.17,7.17,0,0,1,.942,1.416,6.837,6.837,0,0,1,.563,1.552A6.941,6.941,0,0,1,335.8,390.53Zm-6.8,6.065a6.6,6.6,0,0,0,1.907-.26,5.83,5.83,0,0,0,1.552-.717,5.7,5.7,0,0,0,1.2-1.054,6.141,6.141,0,0,0,.841-1.274,6.482,6.482,0,0,0,.5-1.386,6.045,6.045,0,0,0,.166-1.374,6.179,6.179,0,0,0-.166-1.392,6.4,6.4,0,0,0-1.339-2.677,5.414,5.414,0,0,0-1.2-1.06,6.093,6.093,0,0,0-1.552-.717,6.457,6.457,0,0,0-1.907-.266h-4v12.177Z" transform="translate(-289.289 -383.754)"/><path class="a" d="M377.632,403.4a.742.742,0,0,1,.113.113.262.262,0,0,1,.054.171.357.357,0,0,1-.1.255.312.312,0,0,1-.237.1.6.6,0,0,1-.142-.017.253.253,0,0,1-.119-.065,4.8,4.8,0,0,0-1.09-.527,3.738,3.738,0,0,0-1.22-.207,3.129,3.129,0,0,0-1.4.314,3.414,3.414,0,0,0-1.108.865,4.058,4.058,0,0,0-.729,1.285,4.645,4.645,0,0,0-.261,1.564l-.059,6.681a.309.309,0,0,1-.355.344.3.3,0,0,1-.344-.344V403.044a.3.3,0,0,1,.344-.344.309.309,0,0,1,.355.344v1.824a3.224,3.224,0,0,1,.539-1.019,3.337,3.337,0,0,1,.812-.735,3.6,3.6,0,0,1,1.013-.444,4.333,4.333,0,0,1,1.131-.148,4.824,4.824,0,0,1,1.487.231A4.885,4.885,0,0,1,377.632,403.4Z" transform="translate(-321.163 -396.671)"/><path class="a" d="M401.683,390.316a.707.707,0,1,1,.207.5A.685.685,0,0,1,401.683,390.316Zm.379,3.791q0-.344.367-.344a.3.3,0,0,1,.332.344V405.04a.3.3,0,0,1-.332.344q-.367,0-.367-.344Z" transform="translate(-342.526 -387.781)"/><path class="a" d="M417.351,413.643a.309.309,0,0,1-.355.344.3.3,0,0,1-.344-.344V402.709a.3.3,0,0,1,.344-.344.309.309,0,0,1,.355.344v1.718a4.67,4.67,0,0,1,1.727-1.7,4.829,4.829,0,0,1,2.438-.622,4.77,4.77,0,0,1,1.893.379,4.826,4.826,0,0,1,2.579,2.577,4.737,4.737,0,0,1,.378,1.889v6.693a.338.338,0,1,1-.675,0V406.9a4.331,4.331,0,0,0-.35-1.617,4.058,4.058,0,0,0-.888-1.3,4.156,4.156,0,0,0-2.932-1.179,4.274,4.274,0,0,0-1.605.3,4.018,4.018,0,0,0-1.309.841,4.12,4.12,0,0,0-.888,1.267,4.2,4.2,0,0,0-.367,1.581Z" transform="translate(-352.827 -396.383)"/><path class="a" d="M465.847,404.318a5.594,5.594,0,0,0-1.658-1.019,5.279,5.279,0,0,0-1.966-.368,5.145,5.145,0,0,0-2.079.427,5.431,5.431,0,0,0-2.861,2.867,5.3,5.3,0,0,0,0,4.164,5.447,5.447,0,0,0,2.861,2.861,5.144,5.144,0,0,0,2.079.426,5.459,5.459,0,0,0,2.014-.367,5.176,5.176,0,0,0,1.658-1.042.368.368,0,0,1,.225-.095.389.389,0,0,1,.355.355.383.383,0,0,1-.189.285v-.024a6.081,6.081,0,0,1-1.866,1.167,6.125,6.125,0,0,1-4.531-.077,6.03,6.03,0,0,1-1.919-1.3,6.149,6.149,0,0,1-1.291-1.925,6.07,6.07,0,0,1,0-4.7,6.151,6.151,0,0,1,1.291-1.925,6.034,6.034,0,0,1,1.919-1.3,5.9,5.9,0,0,1,2.357-.474,5.485,5.485,0,0,1,2.162.415,7.062,7.062,0,0,1,1.795,1.1.413.413,0,0,1,.189.3.368.368,0,0,1-.113.243.3.3,0,0,1-.207.124A.331.331,0,0,1,465.847,404.318Z" transform="translate(-380.048 -396.488)"/><path class="a" d="M495.289,408.417a5.015,5.015,0,0,0,.427,2.061,5.33,5.33,0,0,0,1.155,1.67,5.417,5.417,0,0,0,1.7,1.12,5.265,5.265,0,0,0,2.061.408,5.513,5.513,0,0,0,2.044-.367,5.331,5.331,0,0,0,1.664-1.042.318.318,0,0,1,.225-.107.348.348,0,0,1,.213.1.308.308,0,0,1,.118.243.419.419,0,0,1-.189.308v-.024a5.8,5.8,0,0,1-1.842,1.167,5.967,5.967,0,0,1-2.2.4,5.9,5.9,0,0,1-2.357-.474,6.15,6.15,0,0,1-1.925-1.291,6.033,6.033,0,0,1-1.3-1.919,5.9,5.9,0,0,1-.474-2.357,6.277,6.277,0,0,1,1.653-4.282,5.67,5.67,0,0,1,1.783-1.3,5.078,5.078,0,0,1,2.168-.474,4.9,4.9,0,0,1,2.061.444A5.64,5.64,0,0,1,504,403.915a6.281,6.281,0,0,1,1.214,1.807,6.455,6.455,0,0,1,.551,2.221.187.187,0,0,1,.023.077v.053q0,.344-.331.344Zm4.9-5.473a4.352,4.352,0,0,0-1.771.367,5.014,5.014,0,0,0-1.493,1.007,5.5,5.5,0,0,0-1.09,1.51,5.674,5.674,0,0,0-.551,1.878h9.8a5.362,5.362,0,0,0-.521-1.866,5.421,5.421,0,0,0-1.09-1.516,5.02,5.02,0,0,0-1.5-1.013A4.4,4.4,0,0,0,500.193,402.944Z" transform="translate(-406.482 -396.488)"/><path class="a" d="M543.515,404.5a2.877,2.877,0,0,0-1.208-1.208,3.667,3.667,0,0,0-1.765-.427,3.5,3.5,0,0,0-1.084.16,2.489,2.489,0,0,0-.853.468,2.133,2.133,0,0,0-.563.752,2.458,2.458,0,0,0-.2,1.025,1.49,1.49,0,0,0,.178.735,2.212,2.212,0,0,0,.462.575,3.226,3.226,0,0,0,.64.444,6.064,6.064,0,0,0,.7.32,6.659,6.659,0,0,0,.657.213q.314.083.5.118a5.842,5.842,0,0,1,2.647,1.3,2.74,2.74,0,0,1,.906,2.049,2.852,2.852,0,0,1-.355,1.44,3.226,3.226,0,0,1-.924,1.03,4.172,4.172,0,0,1-1.279.616,5.1,5.1,0,0,1-1.433.207,4.341,4.341,0,0,1-2.351-.6,3.159,3.159,0,0,1-1.333-1.664.362.362,0,0,0-.036-.166.294.294,0,0,1-.036-.13.279.279,0,0,1,.089-.189.4.4,0,0,1,.3-.1.246.246,0,0,1,.189.1.669.669,0,0,1,.13.249,2.008,2.008,0,0,0,.474.782,3.167,3.167,0,0,0,.764.581,3.95,3.95,0,0,0,.912.361,3.577,3.577,0,0,0,.894.124,4.45,4.45,0,0,0,1.013-.136,3.756,3.756,0,0,0,1.078-.438,2.783,2.783,0,0,0,.853-.8,2.069,2.069,0,0,0,.35-1.22,1.874,1.874,0,0,0-.338-1.107,3.235,3.235,0,0,0-.847-.823,4.923,4.923,0,0,0-1.107-.557,7.334,7.334,0,0,0-1.108-.308,6.155,6.155,0,0,1-1.143-.344,4.56,4.56,0,0,1-1.072-.61,3.3,3.3,0,0,1-.8-.877,2.094,2.094,0,0,1-.314-1.131,3.343,3.343,0,0,1,.243-1.3,2.749,2.749,0,0,1,.693-.989,3.1,3.1,0,0,1,1.084-.628,4.306,4.306,0,0,1,1.415-.219,5.313,5.313,0,0,1,1.066.107,3.953,3.953,0,0,1,.983.338,3.154,3.154,0,0,1,.841.616,3.868,3.868,0,0,1,.664.93.645.645,0,0,1,.083.249.374.374,0,0,1-.083.19.323.323,0,0,1-.285.118.238.238,0,0,1-.166-.065A.765.765,0,0,1,543.515,404.5Z" transform="translate(-435.506 -396.436)"/><path class="a" d="M574.137,404.5a2.875,2.875,0,0,0-1.208-1.208,3.667,3.667,0,0,0-1.765-.427,3.5,3.5,0,0,0-1.084.16,2.492,2.492,0,0,0-.853.468,2.13,2.13,0,0,0-.562.752,2.452,2.452,0,0,0-.2,1.025,1.49,1.49,0,0,0,.178.735,2.212,2.212,0,0,0,.462.575,3.227,3.227,0,0,0,.64.444,6.07,6.07,0,0,0,.7.32,6.649,6.649,0,0,0,.657.213q.314.083.5.118a5.84,5.84,0,0,1,2.647,1.3,2.74,2.74,0,0,1,.907,2.049,2.852,2.852,0,0,1-.355,1.44,3.223,3.223,0,0,1-.924,1.03,4.173,4.173,0,0,1-1.279.616,5.1,5.1,0,0,1-1.433.207,4.341,4.341,0,0,1-2.351-.6,3.159,3.159,0,0,1-1.333-1.664.363.363,0,0,0-.036-.166.3.3,0,0,1-.036-.13.278.278,0,0,1,.089-.189.4.4,0,0,1,.3-.1.246.246,0,0,1,.189.1.663.663,0,0,1,.13.249,2.007,2.007,0,0,0,.474.782,3.168,3.168,0,0,0,.764.581,3.953,3.953,0,0,0,.912.361,3.573,3.573,0,0,0,.894.124,4.45,4.45,0,0,0,1.013-.136,3.762,3.762,0,0,0,1.078-.438,2.79,2.79,0,0,0,.853-.8,2.071,2.071,0,0,0,.349-1.22,1.874,1.874,0,0,0-.338-1.107,3.234,3.234,0,0,0-.846-.823,4.932,4.932,0,0,0-1.108-.557,7.341,7.341,0,0,0-1.107-.308,6.152,6.152,0,0,1-1.143-.344,4.551,4.551,0,0,1-1.072-.61,3.305,3.305,0,0,1-.8-.877,2.1,2.1,0,0,1-.314-1.131,3.349,3.349,0,0,1,.243-1.3,2.745,2.745,0,0,1,.693-.989,3.1,3.1,0,0,1,1.084-.628,4.307,4.307,0,0,1,1.416-.219,5.312,5.312,0,0,1,1.066.107,3.953,3.953,0,0,1,.983.338,3.154,3.154,0,0,1,.841.616,3.864,3.864,0,0,1,.664.93.644.644,0,0,1,.083.249.373.373,0,0,1-.083.19.323.323,0,0,1-.285.118.238.238,0,0,1-.166-.065A.765.765,0,0,1,574.137,404.5Z" transform="translate(-456.581 -396.436)"/><path class="a" d="M600,408.417a5.015,5.015,0,0,0,.427,2.061,5.329,5.329,0,0,0,1.155,1.67,5.422,5.422,0,0,0,1.7,1.12,5.265,5.265,0,0,0,2.061.408,5.51,5.51,0,0,0,2.043-.367,5.331,5.331,0,0,0,1.664-1.042.317.317,0,0,1,.225-.107.349.349,0,0,1,.213.1.309.309,0,0,1,.118.243.419.419,0,0,1-.19.308v-.024a5.8,5.8,0,0,1-1.842,1.167,5.966,5.966,0,0,1-2.2.4,5.9,5.9,0,0,1-2.357-.474,6.144,6.144,0,0,1-1.925-1.291,6.028,6.028,0,0,1-1.3-1.919,5.9,5.9,0,0,1-.474-2.357,6.277,6.277,0,0,1,1.653-4.282,5.672,5.672,0,0,1,1.782-1.3,5.08,5.08,0,0,1,2.168-.474,4.9,4.9,0,0,1,2.061.444,5.638,5.638,0,0,1,1.718,1.214,6.288,6.288,0,0,1,1.214,1.807,6.457,6.457,0,0,1,.551,2.221.188.188,0,0,1,.023.077v.053q0,.344-.331.344Zm4.9-5.473a4.352,4.352,0,0,0-1.771.367,5.014,5.014,0,0,0-1.492,1.007,5.5,5.5,0,0,0-1.09,1.51,5.676,5.676,0,0,0-.551,1.878h9.8a5.355,5.355,0,0,0-.521-1.866,5.432,5.432,0,0,0-1.09-1.516,5.019,5.019,0,0,0-1.5-1.013A4.394,4.394,0,0,0,604.9,402.944Z" transform="translate(-478.545 -396.488)"/></g><g transform="translate(0 14.806)"><line class="b" x1="24.646" transform="translate(0 0.488)"/><rect class="a" width="24.646" height="0.976" transform="translate(0)"/></g><g transform="translate(175.354 14.806)"><line class="c" x1="24.646" transform="translate(0 0.488)"/><rect class="a" width="24.646" height="0.976"/></g></g></g><text class="d" transform="translate(180 442)"><tspan x="-46.98" y="0">لابرنساس</tspan></text></g></svg>