<svg xmlns="http://www.w3.org/2000/svg" width="24" height="24" viewBox="0 0 24 24"><defs><style>.a{fill:none;}.b{fill:#97a0af;}</style></defs><path class="a" d="M0,0H24V24H0Z"/><path class="b" d="M22.61,18.99,13.53,9.91A6.5,6.5,0,0,0,3.66,2.26L7.5,6.11,6.08,7.52,2.25,3.69a6.491,6.491,0,0,0,7.54,9.9L18.9,22.7a1,1,0,0,0,1.41,0l2.3-2.3a.978.978,0,0,0,0-1.41Zm-3,1.6-9.46-9.46a4.372,4.372,0,0,1-2,.82A4.486,4.486,0,0,1,3,7.26l3.09,3.09,4.24-4.24L7.24,3.02a4.486,4.486,0,0,1,4.68,5.27,4.349,4.349,0,0,1-.88,1.96l9.45,9.45Z"/></svg>