<svg xmlns="http://www.w3.org/2000/svg" width="25.45" height="45" viewBox="0 0 25.45 45"><defs><style>.a{fill:#7dd481;}</style></defs><path class="a" d="M23.18,24.25c-5.675-1.475-7.5-3-7.5-5.375,0-2.725,2.525-4.625,6.75-4.625,4.45,0,6.1,2.125,6.25,5.25h5.525A9.966,9.966,0,0,0,26.18,9.975V4.5h-7.5V9.9c-4.85,1.05-8.75,4.2-8.75,9.025,0,5.775,4.775,8.65,11.75,10.325,6.25,1.5,7.5,3.7,7.5,6.025,0,1.725-1.225,4.475-6.75,4.475-5.15,0-7.175-2.3-7.45-5.25H9.48c.3,5.475,4.4,8.55,9.2,9.575V49.5h7.5V44.125c4.875-.925,8.75-3.75,8.75-8.875C34.93,28.15,28.855,25.725,23.18,24.25Z" transform="translate(-9.48 -4.5)"/></svg>