<svg xmlns="http://www.w3.org/2000/svg" width="45" height="45" viewBox="0 0 45 45"><defs><style>.a{fill:none;}.b{fill:#c092d4;}</style></defs><path class="a" d="M0,0H45V45H0Z"/><path class="b" d="M12.79,22.271,18.1,16.965,6.49,5.377a1.886,1.886,0,0,0-3.019.506,7.53,7.53,0,0,0,1.462,8.55ZM25.5,18.877c2.869,1.331,6.9.394,9.881-2.587,3.581-3.581,4.275-8.719,1.519-11.475-2.738-2.738-7.875-2.062-11.475,1.519-2.981,2.981-3.919,7.013-2.588,9.881L5.852,33.2A1.869,1.869,0,0,0,8.5,35.846L20.1,24.277,31.69,35.865a1.869,1.869,0,1,0,2.644-2.644L22.746,21.633,25.5,18.877Z" transform="translate(2.398 2.742)"/></svg>